<?xml version="1.0" encoding="utf-8"?>
<!-- Generator: Adobe Illustrator 19.1.0, SVG Export Plug-In . SVG Version: 6.00 Build 0)  -->
<svg version="1.1" xmlns="http://www.w3.org/2000/svg" xmlns:xlink="http://www.w3.org/1999/xlink" x="0px" y="0px"
	 viewBox="0 0 73.6 72" style="enable-background:new 0 0 73.6 72;" xml:space="preserve">
<g id="Layer_1">
</g>
<g id="Isolation_Mode">
	<g>
		<defs>
			<path id="SVGID_1_" d="M37.6,36.8c1.2,0,2.1-1,2.1-2.1s-0.9-2.1-2.1-2.1s-2.1,1-2.1,2.1S36.4,36.8,37.6,36.8z M31.3,31
				c1.2,0,2.1-1,2.1-2.1c0-1.2-0.9-2.1-2.1-2.1c-1.2,0-2.1,1-2.1,2.1C29.2,30.1,30.1,31,31.3,31z M37.6,31c1.2,0,2.1-1,2.1-2.1
				c0-1.2-0.9-2.1-2.1-2.1s-2.1,1-2.1,2.1C35.5,30.1,36.4,31,37.6,31z M43.9,31c1.2,0,2.1-1,2.1-2.1c0-1.2-0.9-2.1-2.1-2.1
				c-1.2,0-2.1,1-2.1,2.1C41.8,30.1,42.8,31,43.9,31z M31.3,25.3c1.2,0,2.1-1,2.1-2.1c0-1.2-0.9-2.1-2.1-2.1c-1.2,0-2.1,1-2.1,2.1
				C29.2,24.4,30.1,25.3,31.3,25.3z M37.6,25.3c1.2,0,2.1-1,2.1-2.1c0-1.2-0.9-2.1-2.1-2.1s-2.1,1-2.1,2.1
				C35.5,24.4,36.4,25.3,37.6,25.3z M43.9,25.3c1.2,0,2.1-1,2.1-2.1c0-1.2-0.9-2.1-2.1-2.1c-1.2,0-2.1,1-2.1,2.1
				C41.8,24.4,42.8,25.3,43.9,25.3z M37.6,19.6c1.2,0,2.1-1,2.1-2.1c0-1.2-0.9-2.1-2.1-2.1s-2.1,1-2.1,2.1
				C35.5,18.6,36.4,19.6,37.6,19.6z M43.9,19.6c1.2,0,2.1-1,2.1-2.1c0-1.2-0.9-2.1-2.1-2.1c-1.2,0-2.1,1-2.1,2.1
				C41.8,18.6,42.8,19.6,43.9,19.6z M31.3,19.6c1.2,0,2.1-1,2.1-2.1c0-1.2-0.9-2.1-2.1-2.1c-1.2,0-2.1,1-2.1,2.1
				C29.2,18.6,30.1,19.6,31.3,19.6z M36.8,72L0,0h73.6L36.8,72z"/>
		</defs>
		<use xlink:href="#SVGID_1_"  style="overflow:visible;fill-rule:evenodd;clip-rule:evenodd;fill:#FFFFFF;"/>
		<clipPath id="SVGID_2_">
			<use xlink:href="#SVGID_1_"  style="overflow:visible;"/>
		</clipPath>
	</g>
</g>
</svg>
